<svg xmlns="http://www.w3.org/2000/svg" width="1200" height="360" viewBox="0 0 1200 360" role="img" aria-labelledby="title description">
  <title id="title">Freedom MoneyGraph AML</title>
  <desc id="description">Обложка продукта для объяснимого анализа графа переводов и контролируемых AML-расследований.</desc>

  <rect width="1200" height="360" fill="#14272B"/>
  <path d="M0 0H14V360H0Z" fill="#DC4C3E"/>
  <path d="M756 0L664 360M924 0L832 360M1092 0L1000 360" stroke="#294348" stroke-width="1"/>

  <g transform="translate(72 58)">
    <rect width="43" height="43" fill="#1D3438" stroke="#496267"/>
    <rect x="9" y="25" width="6" height="10" fill="#DC4C3E"/>
    <rect x="19" y="16" width="6" height="19" fill="#DC4C3E"/>
    <rect x="29" y="8" width="6" height="27" fill="#DC4C3E"/>
    <text x="58" y="18" fill="#FFFEFA" font-family="-apple-system, BlinkMacSystemFont, 'Segoe UI', sans-serif" font-size="17" font-weight="700">FREEDOM MONEYGRAPH</text>
    <text x="58" y="39" fill="#9FB4B0" font-family="-apple-system, BlinkMacSystemFont, 'Segoe UI', sans-serif" font-size="10" font-weight="700" letter-spacing="2.2">AML · GRAPH INTELLIGENCE</text>
  </g>

  <g transform="translate(72 140)" font-family="-apple-system, BlinkMacSystemFont, 'Segoe UI', sans-serif">
    <text x="0" y="0" fill="#F08A7F" font-size="11" font-weight="700" letter-spacing="2.5">ANALYST WORKSPACE / 01</text>
    <text x="0" y="58" fill="#FFFEFA" font-size="53" font-weight="740" letter-spacing="-2.2">Explain the signal.</text>
    <text x="0" y="113" fill="#FFFEFA" font-size="53" font-weight="740" letter-spacing="-2.2">Keep the decision human.</text>
    <text x="2" y="153" fill="#B8C8C5" font-size="16">Наблюдаемые факты → проверяемая гипотеза → контролируемое действие</text>
  </g>

  <g transform="translate(776 64)" fill="none" stroke-linecap="round" stroke-linejoin="round">
    <path d="M28 184L98 118L156 151L228 77L310 126M98 118L118 35M156 151L185 229M228 77L270 18M228 77L326 54M28 184L68 252M185 229L276 260M310 126L342 202M276 260L342 202" stroke="#426066" stroke-width="2"/>
    <path d="M98 118L228 77L310 126" stroke="#DC4C3E" stroke-width="3"/>
    <path d="M156 151L185 229L276 260" stroke="#3C9B8A" stroke-width="3"/>

    <g fill="#14272B" stroke="#6F898E" stroke-width="2">
      <circle cx="28" cy="184" r="8"/>
      <circle cx="118" cy="35" r="7"/>
      <circle cx="185" cy="229" r="9"/>
      <circle cx="270" cy="18" r="6"/>
      <circle cx="326" cy="54" r="7"/>
      <circle cx="342" cy="202" r="8"/>
      <circle cx="68" cy="252" r="6"/>
      <circle cx="276" cy="260" r="8"/>
    </g>
    <circle cx="98" cy="118" r="11" fill="#14272B" stroke="#DC4C3E" stroke-width="4"/>
    <rect x="145" y="140" width="22" height="22" fill="#14272B" stroke="#B87A17" stroke-width="3" transform="rotate(45 156 151)"/>
    <path d="M228 64L241 87H215Z" fill="#14272B" stroke="#3C9B8A" stroke-width="3"/>
    <path d="M310 113L323 126L310 139L297 126Z" fill="#14272B" stroke="#DC4C3E" stroke-width="3"/>
  </g>

  <g transform="translate(774 320)" font-family="-apple-system, BlinkMacSystemFont, 'Segoe UI', sans-serif" font-size="10" font-weight="700" letter-spacing="1.3">
    <text x="0" y="0" fill="#F08A7F">2 248 NODES</text>
    <text x="116" y="0" fill="#9FB4B0">3 119 EDGES</text>
    <text x="225" y="0" fill="#9FB4B0">4 840 TRANSACTIONS</text>
  </g>
</svg>
